<?xml version="1.0" encoding="iso-8859-1"?>
<!-- Generator: Adobe Illustrator 16.0.0, SVG Export Plug-In . SVG Version: 6.00 Build 0)  -->
<!DOCTYPE svg PUBLIC "-//W3C//DTD SVG 1.1//EN" "http://www.w3.org/Graphics/SVG/1.1/DTD/svg11.dtd">
<svg version="1.1" xmlns="http://www.w3.org/2000/svg" xmlns:xlink="http://www.w3.org/1999/xlink" xml:space="preserve" x="0px" y="0px" aria-label="닫기" class="_8-yf5 " fill="#262626" height="24" viewBox="0 0 48 48" width="24">
<g>
    <path clip-rule="evenodd" d="M41.1 9.1l-15 15L41 39c.6.6.6 1.5 0 2.1s-1.5.6-2.1 0L24 26.1l-14.9 15c-.6.6-1.5.6-2.1 0-.6-.6-.6-1.5 0-2.1l14.9-15-15-15c-.6-.6-.6-1.5 0-2.1s1.5-.6 2.1 0l15 15 15-15c.6-.6 1.5-.6 2.1 0 .6.6.6 1.6 0 2.2z" fill-rule="evenodd" />
</g>
</svg>

