<?xml version="1.0" encoding="iso-8859-1"?>
<!-- Generator: Adobe Illustrator 16.0.0, SVG Export Plug-In . SVG Version: 6.00 Build 0)  -->
<!DOCTYPE svg PUBLIC "-//W3C//DTD SVG 1.1//EN" "http://www.w3.org/Graphics/SVG/1.1/DTD/svg11.dtd">
<svg version="1.1" xmlns="http://www.w3.org/2000/svg" xmlns:xlink="http://www.w3.org/1999/xlink" xml:space="preserve" x="0px" y="0px" aria-label="닫기" class="_8-yf5 " fill="#ffffff" height="24" viewBox="0 0 48 48" width="24">
<g>
    <path clip-rule="evenodd" d="M41.8 9.8L27.5 24l14.2 14.2c.6.6.6 1.5 0 2.1l-1.4 1.4c-.6.6-1.5.6-2.1 0L24 27.5 9.8 41.8c-.6.6-1.5.6-2.1 0l-1.4-1.4c-.6-.6-.6-1.5 0-2.1L20.5 24 6.2 9.8c-.6-.6-.6-1.5 0-2.1l1.4-1.4c.6-.6 1.5-.6 2.1 0L24 20.5 38.3 6.2c.6-.6 1.5-.6 2.1 0l1.4 1.4c.6.6.6 1.6 0 2.2z" fill-rule="evenodd" />
</g>
</svg>
