<?xml version="1.0" encoding="iso-8859-1"?>
<!-- Generator: Adobe Illustrator 16.0.0, SVG Export Plug-In . SVG Version: 6.00 Build 0)  -->
<!DOCTYPE svg PUBLIC "-//W3C//DTD SVG 1.1//EN" "http://www.w3.org/Graphics/SVG/1.1/DTD/svg11.dtd">
<svg version="1.1" xmlns="http://www.w3.org/2000/svg" xmlns:xlink="http://www.w3.org/1999/xlink" xml:space="preserve" x="0px" y="0px" aria-label="Direct" class="_8-yf5 " fill="#262626" height="22" viewBox="0 0 48 48" width="22">
<g>
    <path d="M47.8 3.8c-.3-.5-.8-.8-1.3-.8h-45C.9 3.1.3 3.5.1 4S0 5.2.4 5.7l13.2 13c.5.4 1.1.6 1.7.3l16.6-8c.7-.3 1.6-.1 2 .5.4.7.2 1.6-.5 2l-15.6 9.9c-.5.3-.8 1-.7 1.6l4.6 19c.1.6.6 1 1.2 1.1h.2c.5 0 1-.3 1.3-.7l23.2-39c.5-.5.5-1.1.2-1.6z"></path>
</g>
</svg>