<?xml version="1.0" encoding="iso-8859-1"?>
<!-- Generator: Adobe Illustrator 16.0.0, SVG Export Plug-In . SVG Version: 6.00 Build 0)  -->
<!DOCTYPE svg PUBLIC "-//W3C//DTD SVG 1.1//EN" "http://www.w3.org/Graphics/SVG/1.1/DTD/svg11.dtd">
<svg version="1.1" xmlns="http://www.w3.org/2000/svg" xmlns:xlink="http://www.w3.org/1999/xlink" xml:space="preserve" x="0px" y="0px" aria-label="사람 찾기" class="_8-yf5 " fill="#262626" height="22" viewBox="0 0 48 48" width="22">
<g>
    <path clip-rule="evenodd" d="M24 0C10.8 0 0 10.8 0 24s10.8 24 24 24 24-10.8 24-24S37.2 0 24 0zm0 45C12.4 45 3 35.6 3 24S12.4 3 24 3s21 9.4 21 21-9.4 21-21 21zm10.2-33.2l-14.8 7c-.3.1-.6.4-.7.7l-7 14.8c-.3.6-.2 1.3.3 1.7.3.3.7.4 1.1.4.2 0 .4 0 .6-.1l14.8-7c.3-.1.6-.4.7-.7l7-14.8c.3-.6.2-1.3-.3-1.7-.4-.5-1.1-.6-1.7-.3zm-7.4 15l-5.5-5.5 10.5-5-5 10.5z" fill-rule="evenodd" />
</g>
</svg>